<svg width="824" height="824" viewBox="0 0 824 824" fill="none" xmlns="http://www.w3.org/2000/svg">
<path fill-rule="evenodd" clip-rule="evenodd" d="M484.401 493.16C464.277 469.917 443.172 446.313 421.062 422.942C348.578 492.295 281.455 570.388 232.88 658.672C173.29 766.972 85.354 678.35 125.252 599.859C157.324 528.251 239.794 428.901 338.919 342.698C284.329 293.947 224.494 249.986 158.959 217.582C63.0576 170.151 136.324 90.6671 205.701 122.194C264.146 145.355 344.794 204.986 418.575 279.153C492.285 225.564 569.885 183.566 639.846 167.125C655.029 163.549 699.353 153.885 709.562 168.34C713.404 173.797 709.176 181.989 701.292 190.881C674.441 221.217 602.272 269.314 567.303 297.008C542.064 317.002 516.438 337.895 490.953 359.771C518.05 393.436 542.274 428.294 561.58 462.801C578.364 492.786 591.422 522.513 599.446 550.979C603.113 563.985 613.169 601.974 601.058 611.346C596.491 614.887 589.249 611.533 581.261 605.059C554 582.985 509.676 522.361 484.401 493.16Z" fill="#EB0100"/>
</svg>
